<?xml version="1.0" encoding="utf-8"?>
<!-- Generator: Adobe Illustrator 23.0.6, SVG Export Plug-In . SVG Version: 6.00 Build 0)  -->
<svg version="1.1" id="Layer_1" xmlns="http://www.w3.org/2000/svg" xmlns:xlink="http://www.w3.org/1999/xlink" x="0px" y="0px"
	 viewBox="0 0 600 102.9" style="enable-background:new 0 0 600 102.9;" xml:space="preserve">
<style type="text/css">
	.st0{fill:#FFFFFF;}
</style>
<g>
	<path class="st0" d="M128.2,65c0,3.8,0.3,4.4,5.1,4.9v3.3h-26.3v-3.3c4.8-0.5,5.1-1.2,5.1-4.9V29.7c0-3.8-0.3-4.4-5.1-4.9v-3.3
		h28.7c11.9,0,20.1,5.5,20.1,14.8c0,7.2-5.2,11.3-10.6,13.2L155,64c3,4.4,4.1,5.8,7.4,6v3.3h-18.2c-2.1-1.6-4-4.3-6.2-8.1l-7.6-13.3
		h-2.2V65z M128.2,25.4v22.5h1.6c6.3,0,10-4.2,10-11.5c0-7-3.7-11-10.1-11H128.2z"/>
	<path class="st0" d="M194.1,57.7h-18.2l-2.2,6.1c-0.4,1-0.6,1.9-0.6,2.7c0,2.4,2.1,3.2,5.9,3.5v3.3h-16.2v-3.3
		c2-0.4,3.5-0.7,4.3-2.7l15-39.3l-2.6-6.4h17.2l18.1,45.7c0.7,1.8,2.2,2.4,4.4,2.7v3.3h-27.7v-3.3c3.4-0.1,5.6-1,5.6-3.5
		c0-0.7-0.2-1.6-0.6-2.7L194.1,57.7z M177.4,53.4h15l-7.7-19.7L177.4,53.4z"/>
	<path class="st0" d="M241.7,29.7c0-3.8-0.3-4.4-5.1-4.9v-3.3H263v3.3c-4.8,0.5-5.1,1.2-5.1,4.9v26.6c0,12.3-7.6,17.7-20.9,17.7
		c-11.8,0-17.9-4.1-17.9-11.4c0-3.2,1.5-5.6,4.1-7h10.3c-0.3,1.8-0.5,3.5-0.5,6.1c0,4.6,0.8,8.9,4.5,8.9c4.1,0,4.4-4.1,4.4-9.7V29.7
		z"/>
	<path class="st0" d="M291.4,57.7h-18.2l-2.2,6.1c-0.4,1-0.6,1.9-0.6,2.7c0,2.4,2.1,3.2,5.9,3.5v3.3h-16.2v-3.3
		c2-0.4,3.5-0.7,4.3-2.7l15-39.3l-2.6-6.4H294l18.1,45.7c0.7,1.8,2.2,2.4,4.4,2.7v3.3h-27.7v-3.3c3.4-0.1,5.6-1,5.6-3.5
		c0-0.7-0.2-1.6-0.6-2.7L291.4,57.7z M274.7,53.4h15L282,33.7L274.7,53.4z"/>
	<path class="st0" d="M376.7,36.5l-12.8,36.7h-6.5l-13.1-36.7l-3.6,26.9c-0.1,0.6-0.1,1.5-0.1,1.8c0,3.5,1.3,4.4,7.2,4.7v3.3H329
		v-3.3c4.3-0.2,5.8-1.2,6.3-4.5l4.7-35.3c0-3.9-1.3-5.2-6.3-5.4v-3.3H356c0.1,1.7,0.6,3.2,1.2,4.9l9.1,26.3l8.8-26.4
		c0.6-1.8,1.1-3.1,1.3-4.8h21.8v3.3c-4.9,0.2-6.3,1.5-6.3,5.4l4.7,35.3c0.5,3.6,2.1,4.3,6.3,4.5v3.3h-29.7v-3.3
		c5.3-0.3,7.2-1.2,7.2-4.7c0-0.3-0.1-1.3-0.1-1.8L376.7,36.5z"/>
	<path class="st0" d="M404.8,69.9c4.8-0.5,5.1-1.2,5.1-4.9V29.7c0-3.8-0.3-4.4-5.1-4.9v-3.3H448l0.4,14.7h-3.1
		c-4-8.3-5.8-11-12.9-11H426v19.2h6.1c3.5,0,4.3-1.7,4.9-6.9h3.5v18.2H437c-0.6-5.2-1.4-6.9-4.9-6.9H426v15.9c0,4,1.8,4.9,5.7,4.9
		h1.6c6.9,0,8.3-2.9,13.8-13.1h3.7l-2.4,16.7h-43.6V69.9z"/>
	<path class="st0" d="M453.8,73.2v-3.3c4.8-0.5,5.1-1.2,5.1-4.9V29.7c0-3.8-0.3-4.4-5.1-4.9v-3.3h25c20.9,0,30.8,10.8,30.8,25.5
		c0,16.5-10.9,26.3-28.9,26.3H453.8z M475,25.1v39.3c0,4.4,1.6,5.2,4.6,5.2h0.4c7.8,0,12.8-8.6,12.8-21.2c0-14.6-6.5-23.2-16.9-23.2
		H475z"/>
	<path class="st0" d="M534.6,65c0,3.8,0.3,4.4,5.1,4.9v3.3h-26.3v-3.3c4.8-0.5,5.1-1.2,5.1-4.9V29.7c0-3.8-0.3-4.4-5.1-4.9v-3.3
		h26.3v3.3c-4.8,0.5-5.1,1.2-5.1,4.9V65z"/>
	<path class="st0" d="M573.2,57.7H555l-2.2,6.1c-0.4,1-0.6,1.9-0.6,2.7c0,2.4,2.1,3.2,5.9,3.5v3.3h-16.2v-3.3c2-0.4,3.5-0.7,4.3-2.7
		l15-39.3l-2.6-6.4h17.2l18.1,45.7c0.7,1.8,2.2,2.4,4.4,2.7v3.3h-27.7v-3.3c3.4-0.1,5.6-1,5.6-3.5c0-0.7-0.2-1.6-0.6-2.7L573.2,57.7
		z M556.6,53.4h15l-7.7-19.7L556.6,53.4z"/>
</g>
<path class="st0" d="M47.6,5.2C22.3,5.2,1.8,25.8,1.8,51.1s20.5,45.8,45.8,45.8s45.8-20.5,45.8-45.8S72.9,5.2,47.6,5.2z M47.6,90
	C26.1,90,8.7,72.5,8.7,51.1s17.4-38.9,38.9-38.9c21.5,0,38.9,17.4,38.9,38.9S69.1,90,47.6,90z"/>
<g>
	<path class="st0" d="M68.5,44.6l-7.2,20.6h-3.1l-7.5-20.6l-2,15.3c0,0.3-0.1,0.8-0.1,1c0,2,0.8,2.4,3.9,2.6v1.7h-9.9v-1.7
		c2.3-0.1,3.2-0.6,3.4-2.4l2.5-19.5c0-2.1-0.8-2.8-3.4-2.9v-1.7h11.2c0.1,0.9,0.3,1.7,0.6,2.6l5.5,15.4l5.2-15.4
		c0.3-1,0.6-1.7,0.7-2.6h11v1.7c-2.7,0.1-3.4,0.8-3.4,2.9l2.5,19.5c0.3,1.9,1.1,2.3,3.4,2.4v1.7H66.6v-1.7c2.9-0.2,3.9-0.6,3.9-2.6
		c0-0.1,0-0.7-0.1-1L68.5,44.6z"/>
	<path class="st0" d="M38.6,60.3l-5.6-8c3-1,6-3.2,6-7.3c0-5-4.3-8-10.9-8H15.7h-2.4v1.7v0.3h1.7h9.1h0.2h1c3.7,0,5.8,2.3,5.8,6.1
		c0,4.1-2.1,6.4-5.8,6.4h-1.2v-0.1h-7.9v9.5c0,2.1-0.2,2.4-2.9,2.7v1.7h13.7v-1.7c-2.7-0.3-2.9-0.6-2.9-2.7v-7.4h1.5l4.6,7.5
		c1.2,2,2.3,3.4,3.4,4.3h9.2v-1.7C41,63.4,40.2,62.7,38.6,60.3z"/>
</g>
</svg>
